<svg width="24" height="24" viewBox="0 0 24 19.5" fill="currentColor" xmlns="http://www.w3.org/2000/svg"><path d="M20.572 9H16.5V6H21zm-.643 4.5H16.5v-3h3.857zm-.429 3A1.5 1.5 0 0 1 18 18h-1.5v-3h3.214zM9 6h6v3H9zm0 4.5h6v3H9zM9 15h6v3H9zM7.5 9H3.214L3 6h4.5zm0 4.5H3.536l-.214-3H7.5zm0 4.5H5.25a1.5 1.5 0 0 1-1.5-1.5L3.643 15H7.5zM23.25 4.5h-4.894l1.519-3H22.5a.75.75 0 1 0 0-1.5h-3l-2.313 4.5H7.626L5.25 0h-3a.75.75 0 1 0 0 1.5h1.875l1.609 3H.75a.75.75 0 1 0 0 1.5h.75l.75 10.5a3 3 0 0 0 3 3H18a3 3 0 0 0 3-3L22.5 6h.75a.75.75 0 1 0 0-1.5"/></svg>